<?xml version="1.0" standalone="no"?>
<!DOCTYPE svg PUBLIC "-//W3C//DTD SVG 20010904//EN"
 "http://www.w3.org/TR/2001/REC-SVG-20010904/DTD/svg10.dtd">
<svg version="1.0" xmlns="http://www.w3.org/2000/svg"
 width="214.000000pt" height="214.000000pt" viewBox="0 0 214.000000 214.000000"
 preserveAspectRatio="xMidYMid meet">
<metadata>
Created by potrace 1.14, written by Peter Selinger 2001-2017
</metadata>
<g transform="translate(0.000000,214.000000) scale(0.100000,-0.100000)"
fill="#000000" stroke="none">
<path d="M865 2111 c-304 -65 -539 -229 -713 -496 -25 -39 -79 -161 -100 -225
-68 -209 -65 -465 6 -670 130 -370 443 -634 838 -707 50 -9 264 -10 329 -1
141 18 301 82 444 176 79 52 229 204 283 287 61 94 123 231 144 320 23 94 32
187 29 295 -4 146 -6 157 -39 272 -54 185 -157 352 -296 481 -138 128 -286
208 -475 258 -110 29 -336 34 -450 10z"/>
</g>
</svg>
